<svg xmlns="http://www.w3.org/2000/svg" width="122.002" height="97.602" viewBox="0 0 122.002 97.602">
  <path id="Icon_awesome-school" data-name="Icon awesome-school" d="M0,42.7V94.551A3.049,3.049,0,0,0,3.05,97.6H18.3v-61H6.1A6.1,6.1,0,0,0,0,42.7Zm68.626-9.15H64.051V25.925A1.525,1.525,0,0,0,62.526,24.4h-3.05a1.525,1.525,0,0,0-1.525,1.525v12.2a1.525,1.525,0,0,0,1.525,1.525h9.15a1.525,1.525,0,0,0,1.525-1.525v-3.05A1.525,1.525,0,0,0,68.626,33.551ZM94.885,21.358,64.385,1.024a6.1,6.1,0,0,0-6.767,0l-30.5,20.334A6.1,6.1,0,0,0,24.4,26.432V97.6H48.8V70.151a3.049,3.049,0,0,1,3.05-3.05h18.3a3.049,3.049,0,0,1,3.05,3.05V97.6H97.6V26.434A6.1,6.1,0,0,0,94.885,21.358ZM61,48.8a15.25,15.25,0,1,1,15.25-15.25A15.251,15.251,0,0,1,61,48.8Zm54.9-12.2H103.7v61h15.25a3.049,3.049,0,0,0,3.05-3.05V42.7A6.1,6.1,0,0,0,115.9,36.6Z" fill="#45c7d4"/>
</svg>
