<svg xmlns="http://www.w3.org/2000/svg" width="144.545" height="78.244" viewBox="0 0 144.545 78.244">
  <path id="Icon_map-city-hall" data-name="Icon map-city-hall" d="M11.2,74.686H24.966V119.64h20.65V81.108h20.65V119.64H86.911V81.108h20.654V119.64h20.65V74.686h13.759c3.8,0,6.887-1.437,6.887-3.211,0-1.072-1.137-2.015-2.871-2.6l.012-.006-.1-.03-.178-.054L80.028,51.511c6.312-1.159-5.424.156-6.875,0L7.46,68.784l-.178.054-.1.034v.006c-1.726.582-2.859,1.527-2.859,2.6,0,1.774,3.08,3.211,6.879,3.211Zm6.879,48.167L4.32,129.273H148.865l-13.771-6.42Z" transform="translate(-4.32 -51.029)" fill="#45c7d4"/>
</svg>
