<svg xmlns="http://www.w3.org/2000/svg" width="105.698" height="92.486" viewBox="0 0 105.698 92.486">
  <path id="Icon_awesome-archive" data-name="Icon awesome-archive" d="M6.606,88.13a6.6,6.6,0,0,0,6.606,6.606H92.486a6.6,6.6,0,0,0,6.606-6.606V28.675H6.606ZM39.637,44.364a2.485,2.485,0,0,1,2.477-2.477h21.47a2.485,2.485,0,0,1,2.477,2.477v1.652a2.485,2.485,0,0,1-2.477,2.477H42.114a2.485,2.485,0,0,1-2.477-2.477ZM99.092,2.25H6.606A6.6,6.6,0,0,0,0,8.856v9.909a3.313,3.313,0,0,0,3.3,3.3H102.4a3.313,3.313,0,0,0,3.3-3.3V8.856A6.6,6.6,0,0,0,99.092,2.25Z" transform="translate(0 -2.25)" fill="#45c7d4"/>
</svg>
