<svg xmlns="http://www.w3.org/2000/svg" width="57.249" height="65.427" viewBox="0 0 57.249 65.427">
  <path id="Icon_awesome-building" data-name="Icon awesome-building" d="M55.715,61.338H53.16V3.067A3.067,3.067,0,0,0,50.093,0H7.156A3.067,3.067,0,0,0,4.089,3.067V61.338H1.533A1.534,1.534,0,0,0,0,62.872v2.556H57.249V62.872A1.534,1.534,0,0,0,55.715,61.338ZM16.357,9.712A1.534,1.534,0,0,1,17.89,8.178H23a1.534,1.534,0,0,1,1.533,1.533v5.112A1.534,1.534,0,0,1,23,16.357H17.89a1.534,1.534,0,0,1-1.533-1.533Zm0,12.268a1.534,1.534,0,0,1,1.533-1.533H23a1.534,1.534,0,0,1,1.533,1.533v5.112A1.534,1.534,0,0,1,23,28.624H17.89a1.534,1.534,0,0,1-1.533-1.533ZM23,40.892H17.89a1.534,1.534,0,0,1-1.533-1.533V34.247a1.534,1.534,0,0,1,1.533-1.533H23a1.534,1.534,0,0,1,1.533,1.533v5.112A1.534,1.534,0,0,1,23,40.892Zm9.712,20.446H24.535V50.6a1.534,1.534,0,0,1,1.533-1.533H31.18A1.534,1.534,0,0,1,32.714,50.6Zm8.178-21.979a1.534,1.534,0,0,1-1.533,1.533H34.247a1.534,1.534,0,0,1-1.533-1.533V34.247a1.534,1.534,0,0,1,1.533-1.533h5.112a1.534,1.534,0,0,1,1.533,1.533Zm0-12.268a1.534,1.534,0,0,1-1.533,1.533H34.247a1.534,1.534,0,0,1-1.533-1.533V21.979a1.534,1.534,0,0,1,1.533-1.533h5.112a1.534,1.534,0,0,1,1.533,1.533Zm0-12.268a1.534,1.534,0,0,1-1.533,1.533H34.247a1.534,1.534,0,0,1-1.533-1.533V9.712a1.534,1.534,0,0,1,1.533-1.533h5.112a1.534,1.534,0,0,1,1.533,1.533Z" fill="#676767"/>
</svg>
