<svg xmlns="http://www.w3.org/2000/svg" width="82.97" height="75.427" viewBox="0 0 82.97 75.427">
  <path id="Icon_material-live-tv" data-name="Icon material-live-tv" d="M76.927,18.085H48.3L60.71,5.678,58.07,3,42.985,18.085,27.9,3,25.222,5.678,37.667,18.085H9.043A7.541,7.541,0,0,0,1.5,25.628V70.885a7.565,7.565,0,0,0,7.543,7.543H76.927a7.565,7.565,0,0,0,7.543-7.543V25.628A7.541,7.541,0,0,0,76.927,18.085Zm0,52.8H9.043V25.628H76.927ZM31.671,33.171V63.342l26.4-15.085Z" transform="translate(-1.5 -3)" fill="#676767"/>
</svg>
