<svg id="Icon_ionic-ios-people" data-name="Icon ionic-ios-people" xmlns="http://www.w3.org/2000/svg" width="100.675" height="65.427" viewBox="0 0 100.675 65.427">
  <path id="Path_88" data-name="Path 88" d="M60.345,58.086c-2.511-.9-6.614-.942-8.431-1.637-1.256-.493-3.251-1.031-3.9-1.816s-.65-6.39-.65-6.39a10.323,10.323,0,0,0,2.22-3.139,34.887,34.887,0,0,0,1.076-6.166s1.48.628,2.063-2.332c.493-2.556,1.435-3.9,1.188-5.785-.269-1.883-1.3-1.435-1.3-1.435s1.3-1.906,1.3-8.386c0-6.682-5.045-13.251-14.485-13.251C30.008,7.748,24.918,14.34,24.918,21c0,6.48,1.278,8.386,1.278,8.386s-1.054-.448-1.3,1.435c-.269,1.883.673,3.229,1.188,5.785.583,2.982,2.063,2.332,2.063,2.332A35.224,35.224,0,0,0,29.223,45.1a10.323,10.323,0,0,0,2.22,3.139s0,5.605-.65,6.39-2.646,1.323-3.9,1.794c-1.794.7-5.9.785-8.431,1.682A15.824,15.824,0,0,0,8.191,73.176h62.4A15.793,15.793,0,0,0,60.345,58.086Z" transform="translate(10.867 -7.748)" fill="#676767"/>
  <path id="Path_89" data-name="Path 89" d="M26.543,39.594s5.359-.179,7.489-2.085C30.556,32.24,32.44,26.1,31.722,20.356c-.718-5.718-3.969-9.148-10.471-9.148h-.09c-6.278,0-9.664,3.408-10.381,9.148-.718,5.718,1.278,12.556-2.287,17.153C10.623,39.437,16,39.37,16,39.37h0s.224,3.229-.224,3.767a5.662,5.662,0,0,1-2.691,1.233,52.022,52.022,0,0,0-5.807,1.614c-1.749.605-5.067,3.857-5.067,8.341h18c.493-1.794,3.879-5,7.175-6.682,2.018-1.031,4.014-.964,5.538-1.166,0,0,.852-1.345-1.951-1.861,0,0-3.857-.964-4.305-1.5C26.251,42.621,26.543,39.594,26.543,39.594Z" transform="translate(-2.215 -0.176)" fill="#676767"/>
  <path id="Path_90" data-name="Path 90" d="M31.3,39.594s-5.359-.179-7.489-2.085C27.283,32.24,25.4,26.1,26.117,20.356c.718-5.718,3.969-9.148,10.471-9.148h.09c6.278,0,9.664,3.408,10.381,9.148.718,5.718-1.278,12.556,2.287,17.153-2.13,1.928-7.511,1.861-7.511,1.861h0s-.224,3.229.224,3.767A5.662,5.662,0,0,0,44.75,44.37a52.022,52.022,0,0,1,5.807,1.614c1.749.605,5.067,3.857,5.067,8.341h-18c-.493-1.794-3.879-5-7.175-6.682-2.018-1.031-4.014-.964-5.538-1.166,0,0-.852-1.345,1.951-1.861,0,0,3.857-.964,4.305-1.5C31.588,42.621,31.3,39.594,31.3,39.594Z" transform="translate(45.05 -0.176)" fill="#676767"/>
</svg>
